<?xml version="1.0" standalone="no"?>
<!DOCTYPE svg PUBLIC "-//W3C//DTD SVG 20010904//EN"
 "http://www.w3.org/TR/2001/REC-SVG-20010904/DTD/svg10.dtd">
<svg version="1.0" xmlns="http://www.w3.org/2000/svg"
 width="1536.000000pt" height="1024.000000pt" viewBox="0 0 1536.000000 1024.000000"
 preserveAspectRatio="xMidYMid meet">

<g transform="translate(0.000000,1024.000000) scale(0.100000,-0.100000)"
fill="#000000" stroke="none">
<path d="M3393 6961 c-119 -44 -184 -114 -227 -242 -91 -275 -40 -573 128
-743 69 -71 128 -103 213 -116 307 -50 525 291 428 671 -46 180 -183 363 -315
422 -64 29 -162 32 -227 8z m217 -117 c103 -56 200 -198 234 -344 20 -83 20
-229 1 -303 -57 -220 -221 -310 -402 -221 -91 44 -165 154 -200 299 -26 107
-23 331 5 407 50 138 134 203 248 195 42 -3 78 -13 114 -33z"/>
<path d="M3821 6476 c-1 -35 -3 -37 -18 -25 -16 12 -17 12 -6 -2 7 -9 9 -20 5
-24 -4 -5 2 -5 13 -2 18 7 19 6 3 -6 -14 -11 -15 -16 -5 -27 9 -10 9 -11 -1
-5 -10 5 -13 1 -10 -16 2 -13 8 -23 14 -22 5 1 11 -7 11 -18 1 -11 -2 -17 -8
-14 -5 4 -9 2 -9 -4 0 -5 5 -11 12 -13 13 -5 2 -28 -13 -28 -6 0 -7 4 -4 10 3
5 0 7 -8 4 -7 -2 -13 -14 -13 -26 1 -11 -6 -23 -14 -25 -11 -3 -12 -2 -3 4 10
7 10 13 0 28 -14 18 -43 13 -31 -6 7 -13 -15 -41 -27 -33 -14 8 -10 -3 6 -20
9 -9 11 -17 5 -21 -5 -3 -10 -1 -10 4 0 6 -5 11 -11 11 -5 0 -7 -5 -4 -10 4
-6 1 -17 -5 -25 -10 -12 -8 -13 8 -10 20 4 25 -16 7 -32 -4 -4 -5 -3 -1 4 3 6
2 14 -4 18 -5 3 -10 0 -10 -7 0 -8 -5 -6 -11 5 -5 9 -17 17 -26 17 -13 0 -13
-3 -3 -15 7 -9 10 -18 6 -22 -3 -3 -6 -1 -6 6 0 7 -5 9 -10 6 -6 -4 -7 -11 -4
-17 4 -6 -2 -5 -15 1 -17 9 -21 9 -19 -1 2 -7 -2 -12 -8 -11 -8 1 -10 -6 -6
-19 4 -17 2 -20 -11 -15 -10 4 -17 2 -17 -3 0 -6 6 -10 14 -10 9 0 12 -7 9
-18 -3 -12 -14 -18 -36 -18 -18 0 -35 4 -38 9 -3 5 -9 1 -12 -8 -4 -9 -3 -14
2 -10 5 3 16 -2 25 -10 9 -10 17 -11 21 -5 4 6 11 7 17 4 7 -5 8 -2 3 6 -5 8
-4 11 3 6 18 -11 10 -44 -9 -39 -10 3 -26 0 -36 -6 -14 -8 -4 -10 48 -11 127
0 213 71 255 215 20 67 24 257 6 310 l-10 30 -1 -39z m-191 -387 c0 -5 -4 -8
-9 -5 -5 4 -12 0 -14 -6 -3 -8 -6 -6 -6 5 -1 9 6 17 14 17 8 0 15 -5 15 -11z"/>
<path d="M3740 6368 c0 -4 4 -8 9 -8 6 0 12 4 15 8 3 5 -1 9 -9 9 -8 0 -15 -4
-15 -9z"/>
<path d="M3658 6218 c5 -5 16 -8 23 -6 8 3 3 7 -10 11 -17 4 -21 3 -13 -5z"/>
<path d="M3655 6190 c4 -6 11 -8 16 -5 14 9 11 15 -7 15 -8 0 -12 -5 -9 -10z"/>
<path d="M3447 5989 c7 -7 15 -10 18 -7 3 3 -2 9 -12 12 -14 6 -15 5 -6 -5z"/>
<path d="M4578 6967 c-151 -43 -306 -233 -358 -441 -25 -97 -27 -256 -5 -340
38 -144 133 -265 241 -306 82 -31 197 -31 278 0 113 43 227 185 276 345 63
206 17 519 -96 644 -83 92 -217 131 -336 98z m212 -120 c101 -52 150 -168 150
-353 0 -146 -20 -248 -70 -351 -82 -167 -213 -234 -369 -187 -194 57 -268 392
-147 665 33 75 108 173 156 205 87 57 194 65 280 21z"/>
<path d="M4911 6400 c-9 -61 -9 -72 0 -63 6 6 9 26 6 44 -2 19 -5 27 -6 19z"/>
<path d="M4850 6323 c0 -6 5 -15 11 -18 6 -5 4 -11 -7 -19 -18 -14 -28 -66
-13 -66 6 0 9 6 7 14 -2 8 1 14 7 13 12 -2 7 -30 -8 -39 -6 -4 -15 -4 -19 -2
-12 8 -9 -11 4 -24 9 -9 8 -12 -6 -12 -9 0 -14 5 -11 10 3 6 -1 13 -10 17 -10
3 -21 0 -25 -7 -4 -7 -15 -10 -25 -7 -13 6 -15 3 -10 -16 7 -22 7 -22 -8 -2
-15 19 -15 19 -28 -7 -10 -22 -15 -25 -30 -17 -15 7 -17 6 -13 -6 4 -8 1 -15
-5 -15 -7 0 -14 7 -17 14 -4 11 -14 6 -40 -20 -19 -18 -39 -34 -45 -34 -6 0
-7 -4 -4 -10 3 -5 1 -10 -5 -10 -6 0 -8 -4 -5 -10 3 -5 1 -10 -4 -10 -6 0 -11
4 -11 10 0 5 -10 14 -21 21 -17 9 -20 8 -16 -3 2 -7 10 -12 16 -10 7 1 9 -2 6
-8 -4 -6 -10 -9 -13 -6 -3 3 -12 0 -21 -7 -14 -10 -14 -10 -4 4 10 12 10 19 0
30 -6 8 -11 12 -10 10 2 -2 -2 -10 -9 -18 -9 -11 -14 -11 -29 3 -14 12 -16 21
-8 30 8 9 6 11 -9 7 -14 -3 -18 -11 -15 -26 4 -22 4 -22 -8 -2 -7 11 -13 28
-14 37 0 10 -4 17 -10 16 -33 -7 46 -113 108 -145 136 -71 312 2 386 160 48
104 63 198 26 167 -10 -8 -16 -7 -24 7 -6 10 -11 13 -11 6z m-215 -223 c-3 -5
-12 -10 -18 -10 -7 0 -6 4 3 10 19 12 23 12 15 0z"/>
<path d="M4434 6089 c-3 -6 -2 -15 3 -20 5 -5 9 -1 9 11 0 23 -2 24 -12 9z"/>
<path d="M2527 6346 c-230 -82 -282 -364 -125 -668 102 -197 289 -313 449
-279 262 56 355 342 209 636 -50 100 -129 197 -200 247 -100 69 -241 96 -333
64z m228 -106 c71 -34 175 -141 213 -220 47 -98 65 -181 59 -275 -5 -91 -21
-136 -66 -187 -64 -74 -209 -88 -314 -31 -125 68 -227 284 -227 480 0 123 39
210 112 247 48 24 157 17 223 -14z"/>
<path d="M5429 6346 c-167 -45 -324 -241 -374 -470 -63 -283 129 -520 383
-476 88 15 151 51 220 125 179 191 237 522 121 693 -79 119 -209 166 -350 128z
m202 -111 c73 -48 102 -121 101 -250 -1 -103 -23 -200 -67 -290 -43 -88 -84
-137 -143 -173 -41 -24 -57 -27 -132 -27 -75 0 -91 3 -132 27 -54 33 -91 97
-109 192 -38 207 104 474 288 542 57 21 145 12 194 -21z"/>
<path d="M5665 6170 c3 -5 8 -10 11 -10 2 0 4 5 4 10 0 6 -5 10 -11 10 -5 0
-7 -4 -4 -10z"/>
<path d="M11350 5714 c-61 -11 -71 -16 -85 -38 -14 -22 -16 -109 -15 -782 1
-848 -5 -783 75 -803 55 -14 158 -14 207 -1 72 20 68 -29 68 802 0 510 -3 755
-11 771 -6 12 -19 29 -30 36 -21 12 -165 23 -209 15z m158 -821 l-3 -738 -2
733 -3 732 -80 0 -81 0 1 -397 c1 -310 5 -401 15 -413 7 -8 16 -26 19 -40 6
-19 5 -21 -3 -10 -10 13 -11 13 -12 0 0 -8 -5 -4 -9 10 l-8 25 -1 -27 c-1 -18
4 -28 13 -28 12 0 17 -15 29 -87 3 -12 -2 -24 -10 -27 -11 -4 -11 -10 -3 -25
8 -15 7 -23 -4 -33 -12 -11 -11 -15 8 -26 14 -9 15 -12 3 -8 -14 5 -16 2 -8
-12 5 -10 7 -38 4 -62 -4 -31 -3 -41 5 -36 7 4 12 2 12 -3 0 -6 -5 -11 -11
-11 -5 0 -7 -5 -4 -10 4 -6 1 -9 -6 -8 -6 2 -14 -3 -16 -9 -3 -7 1 -13 8 -13
7 0 5 -6 -7 -15 -19 -15 -19 -15 1 -9 18 5 18 4 3 -6 -23 -14 -23 -31 -1 -23
16 6 16 5 0 -17 -11 -16 -17 -44 -17 -77 l0 -52 63 -4 62 -3 -67 -2 -68 -2 0
735 0 735 90 0 90 0 -2 -737z"/>
<path d="M11360 4650 c-6 -11 -8 -20 -6 -20 3 0 10 9 16 20 6 11 8 20 6 20 -3
0 -10 -9 -16 -20z"/>
<path d="M11356 4497 c3 -10 9 -15 12 -12 3 3 0 11 -7 18 -10 9 -11 8 -5 -6z"/>
<path d="M6105 5665 c-22 -8 -41 -15 -42 -15 -1 0 -9 -13 -18 -30 -13 -25 -15
-124 -15 -754 l0 -725 24 -28 c24 -28 25 -28 144 -28 107 0 124 2 149 21 l28
21 3 240 2 240 168 6 c181 5 234 16 333 68 60 32 137 103 175 159 12 19 35 71
50 115 24 68 28 97 28 195 1 123 -10 181 -51 264 -49 98 -176 193 -307 231
-124 35 -590 49 -671 20z m383 -82 c-21 -2 -55 -2 -75 0 -21 2 -4 4 37 4 41 0
58 -2 38 -4z m130 0 c-10 -2 -26 -2 -35 0 -10 3 -2 5 17 5 19 0 27 -2 18 -5z
m189 -38 c176 -80 248 -193 248 -390 0 -167 -55 -288 -168 -371 -95 -70 -160
-86 -377 -91 -102 -3 -189 -9 -195 -14 -6 -6 -12 -114 -15 -262 l-5 -252 -92
-3 -93 -3 0 671 c0 445 3 669 10 665 6 -3 10 -27 10 -52 0 -38 3 -44 16 -39
14 6 15 4 4 -9 -11 -13 -11 -16 1 -13 8 2 13 -2 12 -9 -2 -6 6 -14 16 -18 28
-8 43 -52 46 -133 2 -41 6 -76 8 -79 5 -4 2 -91 -7 -202 -4 -45 10 -101 26
-112 13 -8 73 -4 89 7 8 5 73 11 144 14 140 6 202 25 270 82 45 38 78 113 83
184 8 127 -45 223 -158 284 -63 34 -62 39 2 11 86 -38 153 -125 170 -223 13
-75 -9 -167 -55 -231 -17 -23 -32 -48 -33 -55 -4 -22 -26 -43 -40 -38 -19 7
-29 -13 -14 -27 10 -9 11 -9 5 2 -6 11 -4 13 8 8 10 -3 17 -2 17 3 0 6 5 10
10 10 19 0 -11 -42 -33 -48 -20 -5 -20 -6 -1 -12 10 -4 22 -2 26 4 6 8 8 7 8
-1 0 -7 7 -13 16 -13 8 0 12 -5 9 -11 -4 -6 -13 -8 -21 -5 -21 8 -17 -8 7 -22
17 -11 27 -10 65 10 141 70 216 206 216 389 -1 156 -36 242 -133 321 -60 49
-113 74 -195 92 -68 16 -68 16 -16 11 30 -2 78 -16 109 -30z m-274 -102 c-29
-2 -77 -2 -105 0 -29 2 -6 3 52 3 58 0 81 -1 53 -3z m-236 -390 c-1 -59 -3
-13 -3 102 0 116 2 164 3 108 2 -56 2 -151 0 -210z m350 269 c164 -86 135
-332 -46 -382 -20 -5 -78 -10 -128 -10 l-93 0 0 211 0 211 113 -4 c91 -3 120
-8 154 -26z m138 -562 c3 -5 1 -10 -4 -10 -6 0 -11 5 -11 10 0 6 2 10 4 10 3
0 8 -4 11 -10z"/>
<path d="M6739 4893 c-13 -16 -12 -17 4 -4 9 7 17 15 17 17 0 8 -8 3 -21 -13z"/>
<path d="M6348 4823 c7 -3 16 -2 19 1 4 3 -2 6 -13 5 -11 0 -14 -3 -6 -6z"/>
<path d="M6658 4793 c7 -3 16 -2 19 1 4 3 -2 6 -13 5 -11 0 -14 -3 -6 -6z"/>
<path d="M6685 4779 c-11 -17 1 -21 15 -4 8 9 8 15 2 15 -6 0 -14 -5 -17 -11z"/>
<path d="M3504 5560 c-235 -61 -416 -240 -469 -461 -17 -72 -20 -212 -6 -285
52 -272 287 -572 681 -869 259 -196 327 -233 392 -221 52 10 171 85 368 232
199 149 308 247 415 374 200 235 266 394 266 635 0 119 -15 194 -55 273 -122
242 -441 386 -720 327 -91 -19 -184 -64 -239 -114 -24 -23 -48 -41 -52 -41 -4
0 -30 20 -58 44 -29 24 -76 56 -106 71 -111 55 -284 70 -417 35z m296 -87
c104 -29 181 -83 241 -170 17 -24 36 -43 44 -43 8 0 27 19 44 43 111 162 316
226 531 166 344 -94 491 -411 360 -771 -71 -194 -285 -439 -577 -659 -132
-100 -311 -218 -340 -225 -34 -9 -88 18 -212 105 -225 157 -468 376 -584 526
-246 318 -260 659 -37 886 140 142 337 195 530 142z"/>
<path d="M10472 5295 c-34 -8 -88 -28 -119 -44 -59 -32 -83 -38 -83 -21 0 6
-15 19 -32 30 -27 16 -51 20 -136 20 -57 0 -112 -5 -123 -10 -50 -27 -49 -16
-49 -803 0 -511 3 -744 11 -766 17 -49 52 -61 178 -61 60 0 117 3 126 6 38 15
45 55 45 259 0 107 4 195 8 195 5 0 35 -9 67 -20 133 -46 302 -35 426 27 200
100 309 314 309 608 0 271 -90 436 -292 534 -120 59 -216 72 -336 46z m291
-112 c125 -59 211 -163 242 -294 30 -130 12 -364 -36 -464 -11 -22 -16 -31
-13 -20 54 171 66 347 33 480 -32 129 -116 232 -234 284 -61 27 -110 37 -100
20 6 -9 3 -11 -8 -6 -10 4 -17 1 -17 -6 0 -7 -3 -8 -8 -2 -8 11 -103 14 -95 3
2 -5 -2 -8 -9 -9 -7 0 -22 -2 -32 -4 -11 -2 -25 -1 -30 3 -29 18 -61 7 -145
-51 -24 -17 -41 -25 -37 -18 13 21 129 94 170 107 26 9 79 13 146 11 94 -2
112 -6 173 -34z m-710 10 c-47 -9 -17 -111 33 -113 14 0 26 -26 28 -55 1 -11
5 -26 9 -32 5 -8 3 -13 -5 -13 -9 0 -9 -3 2 -10 11 -7 12 -10 2 -10 -10 0 -12
-12 -6 -52 3 -29 8 -73 9 -98 2 -24 8 -46 15 -48 9 -3 9 -7 -1 -13 -12 -7 -12
-9 0 -9 10 0 11 -3 2 -14 -9 -10 -9 -16 -1 -21 8 -5 8 -11 -1 -21 -8 -10 -8
-14 0 -14 7 0 9 -11 5 -32 -8 -41 -8 -47 -1 -131 4 -37 3 -66 -1 -63 -11 7 -8
-68 3 -76 6 -5 6 -8 -1 -8 -15 0 -24 -34 -13 -51 4 -7 5 -18 1 -24 -12 -19
-14 -40 -15 -202 -1 -90 2 -163 6 -163 5 0 7 -12 6 -27 -5 -62 1 -104 13 -97
8 5 9 2 5 -9 -3 -9 -2 -19 4 -23 6 -3 8 -12 5 -20 -3 -9 2 -14 14 -14 16 0 20
7 20 33 3 217 9 369 14 374 3 3 6 -91 6 -210 l0 -217 -37 1 c-21 1 -64 4 -96
8 l-58 6 -1 605 c0 333 0 665 1 738 l1 132 28 -1 c23 -2 24 -2 5 -6z m141 -2
c3 -4 -6 -6 -19 -3 -14 2 -25 6 -25 8 0 8 39 4 44 -5z m391 -135 c28 -7 65
-21 84 -31 19 -9 48 -19 65 -21 17 -2 37 -5 44 -6 6 -1 12 -5 12 -10 0 -4 9
-8 20 -8 10 0 24 -8 29 -17 6 -11 11 -13 11 -5 0 7 5 10 10 7 6 -4 8 -9 6 -13
-2 -4 2 -12 9 -19 10 -9 15 -9 17 -1 3 7 4 -12 3 -41 -1 -29 3 -55 8 -58 4 -3
6 -11 3 -19 -3 -8 0 -17 8 -20 7 -3 13 -11 13 -18 0 -9 -7 -12 -16 -8 -13 5
-14 3 -3 -10 16 -20 19 -85 4 -100 -6 -6 -8 -17 -5 -24 3 -8 0 -14 -6 -14 -7
0 -7 -8 0 -26 7 -21 6 -31 -7 -45 -9 -10 -13 -22 -10 -27 4 -6 -3 -8 -16 -4
-14 3 -19 1 -14 -6 3 -6 -8 -15 -29 -22 -19 -6 -40 -21 -46 -33 -7 -12 -28
-42 -48 -67 -20 -24 -35 -49 -33 -53 1 -5 -4 -20 -13 -33 -12 -19 -22 -23 -46
-19 -22 4 -28 2 -23 -6 5 -8 2 -10 -8 -7 -12 5 -15 -1 -13 -33 1 -23 -2 -39
-9 -40 -6 -1 0 -4 14 -9 l25 -7 -30 -13 c-47 -19 -15 -22 65 -6 87 18 148 53
215 120 27 28 40 38 28 21 -78 -111 -199 -166 -363 -166 -109 0 -137 5 -195
34 -65 31 -112 82 -65 70 11 -3 27 2 36 12 14 13 19 14 25 3 6 -9 9 -9 9 -1 0
8 11 11 30 8 39 -5 49 12 13 21 -53 13 -101 44 -136 86 -60 75 -60 73 -59 316
0 123 3 226 6 229 3 4 -2 15 -11 25 -14 15 -14 19 -3 16 8 -2 15 4 15 12 0 16
55 61 67 54 7 -5 46 4 133 30 63 19 117 19 180 2z m-285 -16 c0 -5 -5 -10 -11
-10 -5 0 -7 5 -4 10 3 6 8 10 11 10 2 0 4 -4 4 -10z m640 -55 c7 -9 8 -15 2
-15 -5 0 -12 7 -16 15 -3 8 -4 15 -2 15 2 0 9 -7 16 -15z m-100 -509 c0 -2 -7
-6 -15 -10 -8 -3 -15 -1 -15 4 0 6 7 10 15 10 8 0 15 -2 15 -4z m100 -116 c-6
-11 -13 -20 -16 -20 -2 0 0 9 6 20 6 11 13 20 16 20 2 0 0 -9 -6 -20z m-329
-123 c-10 -9 -11 -8 -5 6 3 10 9 15 12 12 3 -3 0 -11 -7 -18z"/>
<path d="M10421 5044 c-65 -17 -105 -41 -147 -86 -65 -70 -64 -64 -64 -283 0
-227 7 -254 75 -314 59 -51 99 -65 195 -65 73 -1 93 3 142 27 135 66 200 211
184 412 -9 119 -30 170 -95 236 -46 45 -67 58 -117 72 -72 20 -101 20 -173 1z
m201 -101 c39 -22 74 -71 88 -122 13 -48 13 -226 -1 -276 -14 -50 -54 -106
-96 -135 -102 -70 -267 -34 -309 67 -10 23 -14 80 -14 195 0 209 15 242 126
284 53 20 162 13 206 -13z"/>
<path d="M10670 4315 c0 -8 2 -15 4 -15 2 0 6 7 10 15 3 8 1 15 -4 15 -6 0
-10 -7 -10 -15z"/>
<path d="M12216 5300 c-256 -32 -416 -170 -483 -420 -24 -92 -25 -320 0 -409
51 -185 169 -318 342 -383 54 -20 77 -22 230 -22 140 1 183 4 247 22 166 45
228 89 228 162 0 32 -11 51 -71 124 -39 47 -76 86 -84 86 -7 0 -50 -19 -95
-42 -74 -39 -90 -43 -165 -47 -139 -5 -212 32 -264 136 -12 23 -21 45 -21 48
0 3 142 5 315 5 344 0 362 2 404 56 22 28 23 35 18 164 -7 199 -49 307 -153
399 -114 100 -271 142 -448 121z m285 -112 c106 -49 188 -143 214 -246 9 -33
17 -111 18 -173 l2 -113 -30 -7 c-49 -11 -598 -10 -615 1 -12 8 -11 10 7 10
18 0 21 5 17 25 -3 15 0 25 7 25 7 0 9 3 6 7 -4 3 -2 12 4 20 9 10 6 13 -17
15 -64 3 117 14 201 12 50 -1 115 -3 145 -3 34 -1 50 -5 42 -10 -20 -12 2 -18
60 -17 26 1 45 -1 43 -4 -2 -3 24 -5 57 -5 l61 0 -6 100 c-7 120 -17 158 -60
221 -74 110 -183 159 -357 159 -116 0 -233 -28 -270 -65 -11 -11 -20 -17 -20
-12 0 4 -9 -4 -19 -17 -10 -14 -17 -31 -14 -38 4 -9 -5 -13 -28 -13 -26 0 -30
-3 -19 -10 10 -6 11 -10 3 -10 -7 0 -12 -3 -12 -7 3 -20 -2 -26 -11 -13 -8 12
-10 10 -10 -8 0 -15 -4 -21 -12 -16 -8 5 -9 2 -5 -9 4 -10 2 -16 -5 -14 -6 1
-22 -29 -36 -68 -20 -55 -26 -96 -30 -187 -4 -116 -4 -117 22 -141 14 -13 26
-34 26 -46 0 -12 6 -21 16 -21 8 0 12 -4 9 -10 -3 -5 -2 -10 2 -10 5 0 9 -12
9 -27 -1 -23 3 -27 21 -25 27 4 57 -37 47 -63 -5 -13 -4 -16 4 -11 8 4 12 0
13 -11 0 -16 1 -16 10 2 7 17 8 15 6 -10 -2 -24 2 -29 17 -27 10 2 16 0 13 -5
-3 -5 3 -9 14 -9 10 0 19 5 19 11 0 11 20 -16 20 -28 0 -5 -6 -5 -12 -1 -9 5
-9 3 1 -9 7 -9 17 -14 23 -11 5 3 16 0 24 -7 9 -7 23 -14 32 -16 9 -1 18 -6
20 -11 1 -4 16 -7 32 -6 17 1 30 -3 30 -9 0 -7 4 -7 12 1 15 15 32 16 23 1 -4
-6 -1 -10 6 -8 35 4 61 -2 56 -14 -3 -8 4 -13 22 -12 17 0 25 -5 23 -14 -8
-39 292 35 305 76 5 13 -66 98 -81 98 -6 0 -10 -5 -9 -10 1 -6 -6 -11 -15 -11
-9 -1 -26 -4 -37 -9 -11 -4 -2 4 20 18 22 14 45 25 50 24 13 -1 95 -101 95
-116 0 -36 -254 -101 -397 -101 -113 0 -180 14 -257 52 -86 43 -151 109 -190
192 -48 100 -60 164 -59 296 2 198 47 326 149 419 101 92 194 121 379 118 106
-2 127 -5 176 -29z m-129 -112 c32 -13 55 -19 51 -14 -3 6 0 8 8 6 8 -3 13
-10 12 -16 -2 -6 8 -19 21 -29 12 -10 29 -30 36 -43 7 -14 19 -29 27 -33 7 -5
11 -12 8 -18 -4 -5 -2 -9 3 -9 5 0 9 -6 10 -12 0 -7 3 -30 5 -50 6 -45 -9 -41
-18 5 -19 89 -91 172 -175 202 -140 50 -283 -18 -341 -160 -17 -44 -19 -46
-14 -15 8 51 55 121 102 153 92 61 172 71 265 33z m48 4 c0 -5 -4 -10 -10 -10
-5 0 -10 5 -10 10 0 6 5 10 10 10 6 0 10 -4 10 -10z m-89 -91 c40 -14 85 -53
105 -91 30 -58 30 -58 -160 -58 -96 0 -177 4 -180 9 -9 14 13 63 42 95 50 53
120 69 193 45z m-334 -171 c-3 -7 -5 -2 -5 12 0 14 2 19 5 13 2 -7 2 -19 0
-25z m47 -382 c66 -114 202 -169 358 -146 44 6 87 13 96 16 10 2 1 -3 -18 -12
-25 -12 -65 -17 -140 -18 -94 -1 -111 2 -161 26 -98 45 -169 136 -183 234 -5
37 -5 36 8 -8 8 -26 25 -67 40 -92z"/>
<path d="M11816 4572 c-3 -6 -1 -14 5 -17 14 -9 20 -2 10 14 -6 8 -11 9 -15 3z"/>
<path d="M7475 5289 c-106 -14 -199 -45 -234 -78 -37 -35 -40 -75 -12 -193 27
-115 41 -125 122 -89 71 31 197 53 259 46 92 -11 150 -56 150 -115 0 -19 -8
-20 -139 -20 -137 0 -267 -17 -313 -41 -77 -39 -128 -90 -165 -165 -35 -71
-38 -85 -41 -178 -5 -120 15 -185 79 -265 72 -92 169 -132 324 -133 107 -1
193 17 252 53 l32 20 31 -22 c24 -19 47 -24 119 -27 54 -3 103 0 125 8 68 22
67 19 64 498 -3 390 -5 431 -22 477 -36 94 -142 174 -281 210 -74 20 -256 27
-350 14z m155 -76 c-97 -8 -239 -33 -279 -49 -34 -14 -41 -21 -41 -44 0 -49 8
-60 37 -49 35 13 40 11 17 -6 -18 -14 -18 -14 6 -14 14 -1 63 6 110 13 47 8
100 13 117 11 23 -2 31 1 26 8 -5 9 -3 9 8 1 17 -14 49 -14 49 -1 0 6 9 2 20
-8 11 -10 20 -15 20 -12 0 4 8 -1 18 -10 9 -10 28 -27 42 -38 14 -11 33 -32
42 -46 24 -37 41 -137 29 -174 -8 -26 -9 -20 -10 37 -1 37 -8 85 -17 107 -28
69 -132 121 -246 121 -55 0 -173 -23 -223 -45 -41 -16 -38 -20 -55 67 -6 32
-9 62 -5 68 17 27 214 68 325 67 50 0 51 -1 10 -4z m150 -13 c16 -6 6 -7 -30
-3 -30 3 -57 7 -59 9 -8 7 64 2 89 -6z m115 -40 c3 -6 -1 -7 -9 -4 -18 7 -21
14 -7 14 6 0 13 -4 16 -10z m75 -55 c19 -19 32 -35 29 -35 -3 0 -20 16 -39 35
-19 19 -32 35 -29 35 3 0 20 -16 39 -35z m48 -70 c-3 -3 -9 2 -12 12 -6 14 -5
15 5 6 7 -7 10 -15 7 -18z m22 -455 l0 -410 -74 0 c-80 0 -106 6 -106 23 0 7
4 7 12 -1 7 -7 42 -12 85 -12 l73 0 0 405 c0 223 2 405 5 405 3 0 5 -184 5
-410z m-271 174 c2 -2 -59 -4 -137 -4 -205 0 -305 -28 -367 -102 -27 -32 -55
-87 -55 -108 0 -15 26 -12 40 5 7 9 15 13 18 10 3 -3 15 3 26 12 21 18 21 18
3 -3 -9 -11 -14 -24 -10 -27 3 -4 1 -7 -6 -7 -8 0 -7 -5 3 -16 19 -18 21 -39
4 -28 -6 4 -4 -3 4 -15 9 -12 13 -31 11 -42 -5 -16 -8 -17 -21 -7 -11 9 -10 4
3 -14 11 -15 23 -28 28 -28 4 0 7 -7 7 -15 0 -8 5 -15 10 -15 6 0 9 -6 8 -12
-2 -9 8 -12 30 -12 17 1 32 -2 32 -6 0 -4 9 -10 20 -13 25 -7 25 -1 -1 26 -12
12 -19 17 -16 12 3 -6 -3 -11 -14 -11 -18 0 -19 2 -4 12 14 11 14 15 -6 48
-43 74 -8 190 70 231 51 26 123 36 244 36 127 -1 152 -8 163 -43 3 -13 12 -30
19 -38 20 -22 23 -110 5 -124 -35 -26 -101 -117 -98 -133 2 -11 -3 -18 -12
-18 -8 0 -14 7 -12 15 3 13 1 13 -10 1 -10 -11 -10 -14 0 -18 6 -3 9 -9 6 -14
-3 -6 0 -16 6 -24 6 -8 9 -19 5 -26 -4 -6 4 -3 19 6 44 29 29 0 -18 -33 -154
-111 -395 -104 -508 15 -83 87 -100 259 -38 383 46 89 144 139 294 150 96 6
246 3 255 -6z"/>
<path d="M7615 4640 c-126 -6 -160 -17 -202 -62 -80 -86 -46 -210 74 -265 47
-22 64 -25 115 -19 77 8 135 34 192 86 l46 43 0 107 c0 89 -3 109 -16 114 -17
6 -20 6 -209 -4z m145 -131 c0 -46 -4 -55 -35 -85 -90 -85 -265 -55 -265 46 0
73 33 89 183 90 l117 0 0 -51z"/>
<path d="M8232 5264 c-28 -20 -52 -65 -52 -100 0 -26 158 -555 263 -879 66
-201 64 -200 242 -200 139 0 174 13 199 76 17 42 99 344 117 429 18 88 25 89
43 9 30 -136 108 -424 122 -451 8 -15 27 -34 42 -42 41 -21 169 -30 235 -16
95 19 104 34 179 292 259 879 246 822 200 868 -30 30 -31 30 -141 30 -117 0
-152 -9 -170 -44 -15 -27 -91 -307 -125 -461 -35 -155 -37 -159 -48 -100 -16
91 -120 530 -130 548 -5 10 -24 27 -41 37 -43 27 -224 29 -266 4 -46 -27 -44
-22 -141 -396 -27 -108 -54 -207 -59 -220 -11 -29 -14 -23 -41 107 -30 143
-109 455 -121 476 -19 37 -63 49 -176 49 -82 0 -114 -4 -131 -16z m275 -238
c24 -93 42 -174 40 -180 -2 -5 -18 49 -36 120 -17 71 -36 139 -41 152 -6 13
-10 32 -10 42 0 24 -43 33 -128 28 -33 -1 -58 1 -55 5 2 4 45 6 95 5 l91 -3
44 -169z m1256 168 c3 -3 -1 -29 -9 -57 -40 -141 -68 -227 -72 -223 -2 3 3 26
12 53 9 27 27 88 40 136 l24 87 -83 0 -82 0 -16 -57 c-9 -32 -18 -70 -21 -86
-3 -15 -8 -36 -11 -48 -4 -11 -2 -26 5 -34 11 -13 4 -65 -9 -65 -3 0 -7 -26
-7 -57 -2 -66 -9 -117 -19 -133 -4 -6 -1 -18 7 -27 11 -14 11 -16 -1 -8 -11 6
-13 4 -8 -7 3 -9 1 -20 -5 -26 -6 -6 -12 -29 -12 -51 -1 -22 -5 -43 -9 -47 -4
-4 -7 -16 -7 -26 0 -10 -5 -18 -11 -18 -5 0 -7 -5 -3 -12 5 -8 2 -9 -9 -5 -10
3 -17 2 -17 -3 0 -6 -5 -9 -11 -8 -6 2 -18 -19 -26 -46 -8 -26 -16 -46 -19
-44 -8 9 115 533 162 686 44 145 31 132 127 132 46 0 86 -3 90 -6z m-859 -154
c-20 -80 -30 -136 -24 -138 5 -2 10 -10 10 -18 0 -13 12 -18 32 -15 4 0 5 -5
3 -12 -3 -6 3 -24 13 -39 l18 -27 12 46 c7 25 15 43 18 40 6 -6 -51 -238 -113
-455 -48 -170 -68 -214 -33 -73 22 87 19 112 -8 88 -24 -21 -63 -32 -60 -17 7
28 -21 18 -31 -11 -56 -161 82 401 185 754 3 10 7 17 9 15 2 -2 -12 -64 -31
-138z m-588 -5 c24 -74 39 -111 42 -97 2 12 7 22 12 22 5 0 7 -8 4 -17 -2 -10
1 -8 7 5 13 25 45 31 35 7 -3 -8 -1 -15 5 -15 6 0 7 -4 4 -10 -3 -5 1 -10 9
-10 8 0 18 -5 22 -11 4 -8 -1 -9 -17 -4 -21 7 -22 7 -6 -9 9 -9 14 -23 11 -31
-4 -8 -2 -15 4 -15 13 0 26 -48 23 -86 -1 -18 2 -35 8 -38 6 -4 8 -13 5 -21
-3 -8 -2 -20 2 -27 5 -7 9 -20 11 -28 1 -8 6 -16 11 -18 5 -1 7 -14 4 -27 -2
-15 0 -25 8 -25 6 0 10 -10 9 -22 -2 -24 11 -66 35 -108 11 -19 12 -30 4 -44
-9 -16 -8 -18 7 -12 14 5 16 4 6 -8 -6 -7 -10 -20 -8 -27 2 -8 2 -10 -1 -6 -2
4 -11 2 -20 -5 -12 -10 -14 -10 -8 0 4 6 2 12 -3 12 -16 0 -14 -15 12 -100
l24 -75 102 -3 c67 -2 108 1 117 9 9 7 14 7 14 1 0 -17 -28 -22 -130 -22 -71
0 -101 4 -109 14 -23 28 -302 930 -300 972 0 10 2 15 4 9 2 -5 21 -64 41 -130z
m909 -222 c67 -279 81 -357 40 -219 -23 79 -42 105 -58 83 -5 -7 -6 0 -3 18 3
17 3 24 0 17 -5 -10 -9 -10 -22 0 -15 12 -16 11 -3 -4 10 -14 11 -21 2 -32 -8
-9 -10 -31 -5 -61 4 -34 3 -45 -5 -41 -6 4 -9 12 -6 17 4 5 1 9 -4 9 -15 0
-14 -26 2 -42 8 -7 12 -24 11 -38 -2 -22 33 -175 68 -292 13 -43 25 -48 124
-48 61 0 73 3 91 23 11 12 23 29 26 37 4 12 6 11 6 -3 1 -10 -10 -29 -24 -42
-22 -23 -32 -25 -108 -25 -52 0 -90 5 -101 13 -11 8 -37 81 -72 207 -64 228
-119 433 -128 475 -6 30 -6 30 7 6 l14 -24 7 27 c3 14 10 26 14 26 5 0 7 13 6
30 -1 16 2 27 7 24 5 -3 9 -1 9 4 0 15 38 22 45 8 6 -12 0 41 -11 94 -4 19 -4
32 -1 29 4 -3 36 -127 72 -276z m339 172 c-4 -8 -8 -15 -10 -15 -2 0 -4 7 -4
15 0 8 4 15 10 15 5 0 7 -7 4 -15z m100 -154 c-10 -33 -19 -59 -21 -57 -3 2 3
32 13 65 9 34 19 60 21 58 2 -3 -4 -32 -13 -66z m-1074 -130 c17 -68 29 -125
27 -127 -4 -4 -67 232 -67 250 0 25 11 -10 40 -123z m980 -193 c-39 -133 -74
-245 -76 -247 -9 -10 -1 22 45 179 86 295 94 320 98 316 3 -2 -28 -114 -67
-248z m-891 -138 c0 -18 -28 53 -33 85 -5 32 -3 28 14 -20 11 -33 20 -62 19
-65z m-72 8 c-3 -8 -6 -5 -6 6 -1 11 2 17 5 13 3 -3 4 -12 1 -19z"/>
</g>
</svg>
